# xmcd
#
# Track frame offsets:
#	150
#	13949
#	30258
#	43575
#	62816
#	80217
#	94942
#	110542
#	129247
#	145025
#	160735
#	175308
#	189187
#	204749
#	218020
#
# Disc length: 3124
#
# Revision: 1
# Processed by: cddbd v1.5.1PL0 Copyright (c) Steve Scherf et al.
# Submitted via: VisiTrax 2.9.5.180 - For more info visit www.synapsa.com
# Normalized: r0:DSETVAR1
#
DISCID=ca0c320f
DTITLE=Various Artist - CDX 240 May 2000
DYEAR=2000
DGENRE=
TTITLE0=Chuck Wagon and The Wheels - Beauty's in the eyes of the beerholder
TTITLE1=Danni Leigh - I don't feel taht way anymore
TTITLE2=Aaron Tippin - Kiss this
TTITLE3=Faith Hill/Tim McGraw - Let's make love
TTITLE4=Allison Moorer - Send down and angel
TTITLE5=Sonya Isaacs - Since I gave my heart away
TTITLE6=Jo Dee Messina - That's the way
TTITLE7=Tara Lyn Hart - That's when you came along
TTITLE8=Martina McBride - There you are
TTITLE9=Ronnie Milsap - Time, love and money
TTITLE10=Trisha earwood - Where are you now
TTITLE11=Ray Hood - Critical list
TTITLE12=Dean Chance - God bless America again
TTITLE13=Michael Clay - I won't rush in
TTITLE14=Curtis Maloney - Jamaice reservations
EXTD=
EXTT0=
EXTT1=
EXTT2=
EXTT3=
EXTT4=
EXTT5=
EXTT6=
EXTT7=
EXTT8=
EXTT9=
EXTT10=
EXTT11=
EXTT12=
EXTT13=
EXTT14=
PLAYORDER=
